<svg xmlns="http://www.w3.org/2000/svg" width="74" height="74" viewBox="0 0 74 74" fill="none" class="w-[4.625rem] h-[4.625rem] absolute top-0 left-0 -translate-x-[2rem] -translate-y-[3.13rem]"><g opacity="0.16" clip-path="url(#clip0_3207_8037)"><path d="M66.425 29.9736C67.9513 26.1349 70.3562 22.3424 73.5706 18.6886C74.5881 17.5324 74.7269 15.8674 73.8944 14.5724C73.2469 13.5549 72.1831 12.9999 71.0269 12.9999C70.7031 12.9999 70.3794 13.023 70.0556 13.1386C63.2569 15.1274 47.37 22.1805 46.9306 44.7968C46.7687 53.5149 53.1513 61.0074 61.4531 61.863C66.055 62.3255 70.6337 60.8224 74.0331 57.7699C75.7144 56.2451 77.0582 54.3856 77.9781 52.3107C78.8981 50.2358 79.3739 47.9914 79.375 45.7218C79.375 38.0905 73.9638 31.4074 66.425 29.9736ZM24.5456 61.863C29.1244 62.3255 33.7031 60.8224 37.1025 57.7699C38.7839 56.2452 40.1277 54.3857 41.0477 52.3108C41.9677 50.2359 42.4434 47.9915 42.4444 45.7218C42.4444 38.0905 37.0331 31.4074 29.4944 29.9736C31.0206 26.1349 33.4256 22.3424 36.64 18.6886C37.6575 17.5324 37.7962 15.8674 36.9637 14.5724C36.3162 13.5549 35.2525 12.9999 34.0962 12.9999C33.7725 12.9999 33.4487 13.023 33.125 13.1386C26.3262 15.1274 10.4394 22.1805 10 44.7968V45.1205C10 53.6999 16.3131 61.0074 24.5456 61.863Z" fill="#55D5D2"/></g><defs><clipPath id="clip0_3207_8037"><rect width="74" height="74" fill="white" transform="matrix(-1 0 0 -1 74 74)"/></clipPath></defs></svg>