<svg width="169" height="34" viewBox="0 0 169 34" fill="none" xmlns="http://www.w3.org/2000/svg"><mask id="path-1-inside-1_1044_3292" fill="white"><path fill-rule="evenodd" clip-rule="evenodd" d="M0 17C0 7.61116 7.61116 0 17 0H114.068C120.999 0 126.962 4.14797 129.608 10.0969C130.18 11.3817 131.388 12.3288 132.794 12.3288C134.2 12.3288 135.409 11.3817 135.98 10.0969C138.627 4.14797 144.589 0 151.52 0C160.909 0 168.52 7.61116 168.52 17C168.52 26.3888 160.909 34 151.52 34C144.589 34 138.627 29.852 135.98 23.9031C135.409 22.6183 134.2 21.6712 132.794 21.6712C131.388 21.6712 130.18 22.6183 129.608 23.9031C126.962 29.852 120.999 34 114.068 34H17C7.61115 34 0 26.3888 0 17Z"/></mask><path d="M129.608 23.9031L128.694 23.4966L129.608 23.9031ZM135.98 10.0969L136.894 10.5034L135.98 10.0969ZM17 -1C7.05887 -1 -1 7.05887 -1 17H1C1 8.16344 8.16344 1 17 1V-1ZM114.068 -1H17V1H114.068V-1ZM130.522 9.69048C127.72 3.3937 121.408 -1 114.068 -1V1C120.59 1 126.203 4.90223 128.694 10.5034L130.522 9.69048ZM136.894 10.5034C139.386 4.90223 144.998 1 151.52 1V-1C144.18 -1 137.868 3.3937 135.067 9.69048L136.894 10.5034ZM151.52 1C160.357 1 167.52 8.16344 167.52 17H169.52C169.52 7.05887 161.461 -1 151.52 -1V1ZM167.52 17C167.52 25.8366 160.357 33 151.52 33V35C161.461 35 169.52 26.9411 169.52 17H167.52ZM151.52 33C144.998 33 139.386 29.0978 136.894 23.4966L135.067 24.3095C137.868 30.6063 144.18 35 151.52 35V33ZM114.068 35C121.408 35 127.72 30.6063 130.522 24.3095L128.694 23.4966C126.203 29.0978 120.59 33 114.068 33V35ZM17 35H114.068V33H17V35ZM-1 17C-1 26.9411 7.05886 35 17 35V33C8.16343 33 1 25.8366 1 17H-1ZM132.794 20.6712C130.916 20.6712 129.393 21.9265 128.694 23.4966L130.522 24.3095C130.966 23.31 131.86 22.6712 132.794 22.6712V20.6712ZM132.794 13.3288C134.672 13.3288 136.195 12.0735 136.894 10.5034L135.067 9.69048C134.622 10.69 133.729 11.3288 132.794 11.3288V13.3288ZM136.894 23.4966C136.195 21.9265 134.672 20.6712 132.794 20.6712V22.6712C133.729 22.6712 134.622 23.31 135.067 24.3095L136.894 23.4966ZM128.694 10.5034C129.393 12.0735 130.916 13.3288 132.794 13.3288V11.3288C131.86 11.3288 130.966 10.69 130.522 9.69048L128.694 10.5034Z" fill="white" mask="url(#path-1-inside-1_1044_3292)"/><rect x="4" y="4" width="123" height="25" rx="12.5" fill="white"/><path d="M153.828 14.9825L155.108 13.7021L155.108 15.5128L155.108 20.6449L156.25 19.5018L156.251 11.75L148.5 11.75L147.357 12.893L152.489 12.893L154.299 12.893L153.019 14.1733C151.98 15.2129 147.878 19.3686 146.227 21.0426C146.133 21.1374 146.131 21.2915 146.23 21.3914L146.602 21.7655C146.702 21.8659 146.856 21.8639 146.952 21.7702C148.644 20.1039 152.852 15.9583 153.828 14.9825ZM148.654 11.5963L148.654 11.5963C148.654 11.5963 148.654 11.5963 148.654 11.5963Z" fill="white" stroke="white" stroke-width="1.5"/><path d="M34.69 14.854L37.14 11.2H39.17V11.284L35.852 16.044L39.268 20.944V21H37.196L34.69 17.318L32.184 21H30.112V20.944L33.514 16.044L30.21 11.284V11.2H32.24L34.69 14.854ZM46.5997 18.158H41.2097C41.3217 19.012 42.0637 19.628 43.2677 19.628C43.8977 19.628 44.7237 19.39 45.1157 18.984L46.2077 20.062C45.4797 20.818 44.2897 21.182 43.2397 21.182C40.8597 21.182 39.4457 19.712 39.4457 17.5C39.4457 15.4 40.8737 13.888 43.1137 13.888C45.4237 13.888 46.8657 15.316 46.5997 18.158ZM41.2377 16.744H44.9617C44.8497 15.848 44.1497 15.4 43.1697 15.4C42.2457 15.4 41.4897 15.848 41.2377 16.744ZM54.2865 21H52.5785V17.304C52.5785 16.394 52.1025 15.568 51.1645 15.568C50.2405 15.568 49.6945 16.394 49.6945 17.304V21H47.9865V14.084H49.5685L49.6945 14.924C50.0585 14.224 50.8565 13.972 51.5145 13.972C52.3405 13.972 53.1665 14.308 53.5585 15.26C54.1745 14.28 54.9725 14 55.8685 14C57.8285 14 58.7945 15.204 58.7945 17.276V21H57.0865V17.276C57.0865 16.366 56.7085 15.596 55.7845 15.596C54.8605 15.596 54.2865 16.394 54.2865 17.304V21ZM67.2036 15.526C66.1116 15.526 65.2436 16.296 65.2436 17.542C65.2436 18.746 66.1116 19.572 67.2036 19.572C68.2816 19.572 69.2056 18.788 69.2056 17.542C69.2056 16.338 68.2816 15.526 67.2036 15.526ZM69.3176 11.214H71.0256V21H69.4296L69.3176 20.048C68.7856 20.874 67.9316 21.154 67.0916 21.154C65.0616 21.154 63.5356 19.81 63.5356 17.542C63.5356 15.162 65.0336 13.93 67.0496 13.93C67.7776 13.93 68.9116 14.322 69.3176 15.036V11.214ZM74.8993 23.408C74.8993 21.98 77.1393 21.98 77.1393 23.408C77.1393 24.878 74.8993 24.878 74.8993 23.408ZM72.7573 14.098H74.4653V17.71C74.4653 18.76 75.0393 19.558 76.1313 19.558C77.1813 19.558 77.8953 18.676 77.8953 17.626V14.098H79.0993C79.4913 14.014 79.7713 13.734 79.7713 12.964H81.2833C81.2413 14.322 80.6113 14.994 79.5893 15.218V21.014H78.0633L77.9513 20.076C77.2373 20.776 76.5793 21.112 75.6133 21.112C73.9613 21.112 72.7573 19.866 72.7573 17.724V14.098ZM90.2222 15.05L90.2782 14.098H91.9162V21H90.3062L90.2222 19.992C89.8302 20.804 88.7522 21.196 87.9822 21.21C85.9382 21.224 84.4262 19.964 84.4262 17.542C84.4262 15.162 86.0082 13.916 88.0242 13.93C88.9482 13.93 89.8302 14.364 90.2222 15.05ZM88.1782 15.456C87.0442 15.456 86.1342 16.226 86.1342 17.542C86.1342 18.858 87.0442 19.642 88.1782 19.642C90.8662 19.642 90.8662 15.456 88.1782 15.456ZM90.6142 11.046H88.6122L87.5762 12.95L87.5622 13.034H89.0742L90.6142 11.116V11.046ZM100.592 21H98.8839V17.388C98.8839 16.338 98.3099 15.54 97.2179 15.54C96.1679 15.54 95.4539 16.422 95.4539 17.472V21H93.7599V14.084H95.2859L95.3979 15.022C96.0979 14.336 96.7979 13.986 97.6659 13.986C99.2899 13.986 100.592 15.204 100.592 17.374V21Z" fill="#55D5D2"/></svg>