<svg xmlns="http://www.w3.org/2000/svg" width="7.54293rem" height="7.54293rem" viewBox="0 0 29 29" fill="none"><path d="M9.42857 9.42852H7.98758C6.45588 9.42852 5.69067 9.42852 5.14589 9.74101C4.66783 10.0152 4.30034 10.4484 4.10844 10.965C3.8899 11.5534 4.0157 12.3082 4.26719 13.8171L4.26772 13.82L5.36772 20.42C5.55432 21.5396 5.64823 22.0996 5.92759 22.5197C6.17384 22.89 6.51951 23.1828 6.92526 23.3648C7.38556 23.5713 7.95284 23.5714 9.08789 23.5714H19.1981C20.3332 23.5714 20.9001 23.5713 21.3604 23.3648C21.7661 23.1828 22.1121 22.89 22.3583 22.5197C22.6377 22.0996 22.7311 21.5396 22.9177 20.42L24.0177 13.82L24.0188 13.8154C24.2701 12.3076 24.3958 11.5532 24.1773 10.965C23.9854 10.4484 23.6188 10.0152 23.1408 9.74101C22.596 9.42852 21.8295 9.42852 20.2978 9.42852H18.8571M9.42857 9.42852H18.8571M9.42857 9.42852C9.42857 6.82489 11.5392 4.71423 14.1429 4.71423C16.7465 4.71423 18.8571 6.82489 18.8571 9.42852" stroke="#454545" stroke-width="2" stroke-linecap="round" stroke-linejoin="round"/></svg>