<svg xmlns="http://www.w3.org/2000/svg" width="3rem" height="3rem" viewBox="0 0 16 16" fill="#F58F5E"><path d="M10.6648 9.02856L7.14581 12.5472C7.12128 12.5718 7.10457 12.603 7.09779 12.6371C7.09101 12.6711 7.09445 12.7064 7.1077 12.7384C7.12098 12.7705 7.14347 12.7979 7.17231 12.8171C7.20115 12.8364 7.23505 12.8467 7.26973 12.8467L9.68119 12.8463C9.70425 12.8463 9.72707 12.8418 9.74836 12.8329C9.76966 12.8241 9.789 12.8112 9.80528 12.7949L14.4763 8.12438C14.5447 8.05591 14.5447 7.9447 14.4763 7.87623L9.80518 3.20565C9.77234 3.17282 9.72762 3.15417 9.68109 3.15417L7.26979 3.15402C7.19884 3.15403 7.13498 3.19676 7.10775 3.26226C7.08053 3.32776 7.09571 3.40333 7.14587 3.45349L10.6649 6.9721C9.55962 6.97217 5.29353 6.99999 3.35224 7.01304C2.81233 7.01667 2.37909 7.45449 2.37751 7.99435C2.37593 8.53609 2.80951 8.97725 3.35129 8.9814C5.31152 8.99641 9.62664 9.02853 10.6648 9.02856Z" fill="#F58F5E"/></svg>