<svg xmlns="http://www.w3.org/2000/svg" width="22" height="22" viewBox="0 0 20 25" fill="none"><path d="M10 17C10.5746 17 11.0965 16.7039 11.3962 16.2079C13.4965 12.7326 16 8.15241 16 6.06824C16 2.7222 13.3084 0 10 0C6.69157 0 4 2.7222 4 6.06824C4 8.15241 6.50357 12.7326 8.60379 16.2079C8.90353 16.7039 9.42547 17 10 17ZM7.58834 5.65159C7.58834 4.30673 8.67022 3.21257 10 3.21257C11.3298 3.21257 12.4117 4.30673 12.4117 5.65159C12.4117 6.99651 11.3298 8.09066 10 8.09066C8.67022 8.09066 7.58834 6.99655 7.58834 5.65159Z" fill="#7BD7D6"/><path opacity="0.5" d="M18.2941 18.5666C18.0104 18.4194 17.6542 18.5173 17.4984 18.7851C17.3426 19.053 17.4462 19.3895 17.7298 19.5366C18.4278 19.8988 18.8281 20.3002 18.8281 20.6381C18.8281 21.0514 18.2082 21.6918 16.4682 22.2501C14.7493 22.8018 12.4521 23.1055 10 23.1055C7.54785 23.1055 5.2507 22.8018 3.53176 22.2501C1.7918 21.6919 1.17188 21.0514 1.17188 20.6381C1.17188 20.3002 1.57219 19.8988 2.27016 19.5366C2.55379 19.3894 2.65738 19.053 2.50156 18.7851C2.34574 18.5172 1.98961 18.4194 1.7059 18.5665C0.927695 18.9703 0 19.6575 0 20.6381C0 21.3898 0.547344 22.4615 3.15477 23.2981C4.99195 23.8877 7.42297 24.2123 10 24.2123C12.577 24.2123 15.008 23.8877 16.8452 23.2981C19.4527 22.4615 20 21.3898 20 20.6381C20 19.6575 19.0723 18.9703 18.2941 18.5666Z" fill="#7BD7D6"/><path opacity="0.5" d="M5.22482 20.1235C6.50884 20.4586 8.2048 20.6431 10.0003 20.6431C11.7958 20.6431 13.4917 20.4586 14.7757 20.1235C16.3466 19.7136 17.1431 19.1202 17.1431 18.3599C17.1431 17.5996 16.3466 17.0062 14.7757 16.5963C14.427 16.5053 14.0477 16.4255 13.6445 16.3574C13.418 16.7188 13.1885 17.0785 12.9562 17.4367C13.4025 17.4986 13.8216 17.5744 14.2021 17.664C15.3582 17.936 15.7805 18.2422 15.8673 18.3599C15.7805 18.4777 15.3582 18.7839 14.2021 19.0559C13.1079 19.3133 11.7001 19.4602 10.2173 19.4733C10.1451 19.4783 10.0727 19.4809 10.0003 19.481C9.92737 19.481 9.85505 19.4782 9.7832 19.4733C8.30044 19.4602 6.89261 19.3133 5.79839 19.0559C4.64231 18.7839 4.22 18.4776 4.13318 18.3599C4.22 18.2422 4.64236 17.936 5.79844 17.664C6.17896 17.5745 6.59799 17.4986 7.04434 17.4367C6.80444 17.0667 6.575 16.7069 6.35603 16.3574C5.95281 16.4256 5.57351 16.5053 5.22482 16.5963C3.65394 17.0062 2.85742 17.5996 2.85742 18.3599C2.85742 19.1202 3.65394 19.7136 5.22482 20.1235Z" fill="#7BD7D6"/><mask id="mask0_1761_5047" maskUnits="userSpaceOnUse" x="2" y="16" width="16" height="5"><path opacity="0.5" d="M5.22482 20.1235C6.50884 20.4586 8.2048 20.6431 10.0003 20.6431C11.7958 20.6431 13.4917 20.4586 14.7757 20.1235C16.3466 19.7136 17.1431 19.1202 17.1431 18.3599C17.1431 17.5996 16.3466 17.0062 14.7757 16.5963C14.427 16.5053 14.0477 16.4255 13.6445 16.3574C13.418 16.7188 13.1885 17.0785 12.9562 17.4367C13.4025 17.4986 13.8216 17.5744 14.2021 17.664C15.3582 17.936 15.7805 18.2422 15.8673 18.3599C15.7805 18.4777 15.3582 18.7839 14.2021 19.0559C13.1079 19.3133 11.7001 19.4602 10.2173 19.4733C10.1451 19.4783 10.0727 19.4809 10.0003 19.481C9.92737 19.481 9.85505 19.4782 9.7832 19.4733C8.30044 19.4602 6.89261 19.3133 5.79839 19.0559C4.64231 18.7839 4.22 18.4776 4.13318 18.3599C4.22 18.2422 4.64236 17.936 5.79844 17.664C6.17896 17.5745 6.59799 17.4986 7.04434 17.4367C6.80444 17.0667 6.575 16.7069 6.35603 16.3574C5.95281 16.4256 5.57351 16.5053 5.22482 16.5963C3.65394 17.0062 2.85742 17.5996 2.85742 18.3599C2.85742 19.1202 3.65394 19.7136 5.22482 20.1235Z" fill="white"/></mask><g mask="url(#mask0_1761_5047)"><rect width="2.73552" height="22.1476" transform="matrix(0.853843 0.52053 -0.509809 0.860288 0.888672 8.92578)" fill="#4DC0BD"/></g><mask id="mask1_1761_5047" maskUnits="userSpaceOnUse" x="0" y="18" width="20" height="7"><path opacity="0.5" d="M18.2941 18.5666C18.0104 18.4194 17.6542 18.5173 17.4984 18.7851C17.3426 19.053 17.4462 19.3895 17.7298 19.5366C18.4278 19.8988 18.8281 20.3002 18.8281 20.6381C18.8281 21.0514 18.2082 21.6918 16.4682 22.2501C14.7493 22.8018 12.4521 23.1055 10 23.1055C7.54785 23.1055 5.2507 22.8018 3.53176 22.2501C1.7918 21.6919 1.17188 21.0514 1.17188 20.6381C1.17188 20.3002 1.57219 19.8988 2.27016 19.5366C2.55379 19.3894 2.65738 19.053 2.50156 18.7851C2.34574 18.5172 1.98961 18.4194 1.7059 18.5665C0.927695 18.9703 0 19.6575 0 20.6381C0 21.3898 0.547344 22.4615 3.15477 23.2981C4.99195 23.8877 7.42297 24.2123 10 24.2123C12.577 24.2123 15.008 23.8877 16.8452 23.2981C19.4527 22.4615 20 21.3898 20 20.6381C20 19.6575 19.0723 18.9703 18.2941 18.5666Z" fill="white"/></mask><g mask="url(#mask1_1761_5047)"><rect width="2.73552" height="22.1476" transform="matrix(0.853843 0.52053 -0.509809 0.860288 -0.783203 8.34766)" fill="#4DC0BD"/></g></svg>