<svg width="53" height="53" viewBox="0 0 54 53" fill="none" xmlns="http://www.w3.org/2000/svg"><rect x="1.00644" y="0.614224" width="51.5948" height="51.5948" rx="25.7974" stroke="#444444" stroke-width="1.22845"/><g clip-path="url(#clip0_1_365)"><path d="M36.5029 26.0751C37.0796 26.0751 37.613 25.9281 38.1033 25.6339C38.5935 25.3398 38.9712 24.939 39.2365 24.4315C38.7751 24.6506 38.2907 24.7919 37.7832 24.8554C37.2757 24.9188 36.7739 24.8928 36.2779 24.7775C36.2433 24.5814 36.1972 24.3853 36.1395 24.1893C35.955 23.3819 35.6003 22.6581 35.0755 22.0179C34.5507 21.3778 33.9163 20.8818 33.1723 20.53C32.4284 20.1782 31.6411 20.0081 30.8107 20.0196L31.3989 19.812C31.4335 19.8004 31.5316 19.7716 31.693 19.7255C32.1083 19.6217 32.4082 19.5294 32.5927 19.4486C32.9157 19.2872 33.0397 19.117 32.9647 18.9383C32.8897 18.7595 32.6043 18.7335 32.1083 18.8604C31.8315 18.9296 31.422 19.0622 30.8799 19.2583L30.5165 19.3967C30.8626 19.2699 31.1336 19.143 31.3297 19.0161C31.6411 18.82 31.8142 18.6066 31.8488 18.376C31.099 18.4913 30.4416 18.8027 29.8764 19.3102C30.084 19.1026 30.2109 18.8546 30.257 18.5663C29.3919 19.1084 28.6076 19.9677 27.904 21.1442C27.408 21.9977 26.8832 23.1569 26.3296 24.6218C25.7644 24.0335 25.13 23.526 24.4264 23.0993C22.3387 22.0035 20.1876 21.0577 17.973 20.2618C17.973 20.9539 18.169 21.5911 18.5612 22.1736C18.9534 22.7561 19.4724 23.1742 20.1183 23.428C19.5993 23.4049 19.086 23.4626 18.5785 23.601C18.7054 24.2123 18.9649 24.7141 19.3571 25.1062C19.8185 25.5676 20.499 25.9021 21.3987 26.1097C21.0757 26.0982 20.7643 26.1501 20.4644 26.2654C20.1645 26.3808 19.8992 26.5538 19.6685 26.7845C19.9684 27.3497 20.4038 27.7707 20.9748 28.0475C21.5457 28.3243 22.1426 28.4051 22.7655 28.2897C22.3156 28.4858 22.0157 28.7222 21.8658 28.9991C21.7274 29.2528 21.7216 29.5037 21.8485 29.7517C21.9754 29.9997 22.1945 30.19 22.506 30.3226C22.8174 30.4553 23.1634 30.4928 23.544 30.4351C22.7136 31.2886 21.7332 31.8769 20.6028 32.1998C19.4955 32.5228 18.3824 32.5574 17.2636 32.3037C16.1217 32.0384 15.1124 31.502 14.2358 30.6946C15.4585 32.3556 16.9695 33.6128 18.7688 34.4663C20.4298 35.2507 22.2291 35.6544 24.1669 35.6774C26.0124 35.689 27.7944 35.3545 29.5131 34.674C31.2317 33.9934 32.685 33.0476 33.873 31.8365C35.1303 30.5562 35.955 29.1086 36.3471 27.4938C36.9123 27.54 37.4573 27.4621 37.9821 27.2603C38.507 27.0584 38.9654 26.7556 39.3576 26.3519C38.3887 26.4904 37.4371 26.3981 36.5029 26.0751Z" fill="#444444"/></g><defs><clipPath id="clip0_1_365"><rect width="25.1218" height="49.1379" fill="white" transform="matrix(1 0 0 -1 14.2359 51.5947)"/></clipPath></defs></svg>