<svg xmlns="http://www.w3.org/2000/svg" width="1.47381rem" height="1.44581rem" viewBox="0 0 24 24" fill="none"><path d="M15.9218 5.78316C15.7027 5.78316 15.4926 5.69612 15.3376 5.54118C15.1827 5.38624 15.0956 5.1761 15.0956 4.95699C15.0956 4.08054 14.7475 3.23999 14.1277 2.62024C13.508 2.0005 12.6674 1.65233 11.791 1.65233C10.9145 1.65233 10.074 2.0005 9.45423 2.62024C8.83448 3.23999 8.48631 4.08054 8.48631 4.95699C8.48631 5.1761 8.39927 5.38624 8.24434 5.54118C8.0894 5.69612 7.87926 5.78316 7.66015 5.78316C7.44104 5.78316 7.2309 5.69612 7.07596 5.54118C6.92103 5.38624 6.83398 5.1761 6.83398 4.95699C6.83398 3.64232 7.35624 2.38149 8.28585 1.45187C9.21547 0.522253 10.4763 0 11.791 0C13.1057 0 14.3665 0.522253 15.2961 1.45187C16.2257 2.38149 16.748 3.64232 16.748 4.95699C16.748 5.1761 16.6609 5.38624 16.506 5.54118C16.3511 5.69612 16.1409 5.78316 15.9218 5.78316Z" fill="white"/><path d="M17.6561 23.1327H5.92459C5.05912 23.1325 4.22083 22.8304 3.55423 22.2784C2.88763 21.7264 2.43449 20.9592 2.27294 20.1089L0.0670791 8.54259C-0.0365575 8.00506 -0.0199343 7.45124 0.115756 6.92089C0.251446 6.39054 0.50284 5.89679 0.8519 5.47508C1.20096 5.05336 1.63903 4.71413 2.13469 4.48173C2.63034 4.24932 3.1713 4.12951 3.71873 4.13087H19.862C20.4094 4.12951 20.9504 4.24932 21.446 4.48173C21.9417 4.71413 22.3798 5.05336 22.7288 5.47508C23.0779 5.89679 23.3293 6.39054 23.465 6.92089C23.6007 7.45124 23.6173 8.00506 23.5137 8.54259L21.3078 20.1089C21.1462 20.9592 20.6931 21.7264 20.0265 22.2784C19.3599 22.8304 18.5216 23.1325 17.6561 23.1327ZM1.68636 8.2617L3.89222 19.828C3.98918 20.2952 4.24428 20.7147 4.61451 21.0157C4.98474 21.3167 5.44744 21.4808 5.92459 21.4803H17.6561C18.1333 21.4808 18.596 21.3167 18.9662 21.0157C19.3365 20.7147 19.5916 20.2952 19.6885 19.828L21.8944 8.2617C21.9542 7.96107 21.9467 7.65091 21.8723 7.35355C21.7979 7.05619 21.6585 6.77903 21.4641 6.542C21.2697 6.30497 21.0252 6.11398 20.7482 5.98278C20.4712 5.85157 20.1685 5.78341 19.862 5.7832H3.71873C3.4122 5.78341 3.10954 5.85157 2.83251 5.98278C2.55549 6.11398 2.311 6.30497 2.11663 6.542C1.92227 6.77903 1.78287 7.05619 1.70848 7.35355C1.63408 7.65091 1.62652 7.96107 1.68636 8.2617Z" fill="white"/><path d="M15.9218 9.91405H7.66015C7.44104 9.91405 7.2309 9.82701 7.07596 9.67207C6.92103 9.51713 6.83398 9.307 6.83398 9.08788C6.83398 8.86877 6.92103 8.65863 7.07596 8.5037C7.2309 8.34876 7.44104 8.26172 7.66015 8.26172H15.9218C16.1409 8.26172 16.3511 8.34876 16.506 8.5037C16.6609 8.65863 16.748 8.86877 16.748 9.08788C16.748 9.307 16.6609 9.51713 16.506 9.67207C16.3511 9.82701 16.1409 9.91405 15.9218 9.91405Z" fill="white"/></svg>