<svg xmlns="http://www.w3.org/2000/svg" width="124" height="29" viewBox="0 0 124 29" fill="none"><path d="M55.2148 27.5483V27.5469" stroke="#179900" stroke-miterlimit="10"></path><path d="M30.1182 27.5479H30.1167" stroke="#179900" stroke-miterlimit="10"></path><path d="M55.2158 27.5479H55.2148" stroke="#179900" stroke-miterlimit="10"></path><path d="M101.04 7.4668V18.758C101.04 22.2589 98.9926 25.282 96.0305 26.6954C94.8859 27.2416 93.6044 27.5473 92.2512 27.5473C90.898 27.5473 89.6244 27.2433 88.4826 26.7004C85.5143 25.2893 83.4629 22.2634 83.4629 18.758V7.4668H88.4826V18.7637C88.4826 20.8478 90.1723 22.5377 92.2568 22.5377C94.3413 22.5377 96.0305 20.8478 96.0305 18.7637V7.4668H101.04Z" fill="#1550E5"></path><path d="M113.972 7.46712C112.144 7.46712 110.429 7.95731 108.953 8.81375V0.672852H103.944V17.5071C103.944 21.2211 105.958 24.464 108.953 26.201C110.429 27.0574 112.144 27.5476 113.972 27.5476C119.51 27.5476 124 23.0523 124 17.5071C124 11.9619 119.51 7.46712 113.972 7.46712ZM113.972 22.538C111.2 22.538 108.953 20.2906 108.953 17.5183C108.953 14.746 111.2 12.498 113.972 12.498C116.745 12.498 118.991 14.746 118.991 17.5183C118.991 20.2906 116.744 22.538 113.972 22.538Z" fill="#1550E5"></path><path d="M26.8719 14.11C26.8719 21.5313 20.8568 27.5476 13.4362 27.5476C6.01572 27.5476 0 21.5313 0 14.11C0 11.6938 0.637631 9.42621 1.75419 7.46712C4.06637 3.40929 8.43165 0.672852 13.4362 0.672852C18.4408 0.672852 22.8061 3.40929 25.1177 7.46712C26.2343 9.42621 26.8719 11.6938 26.8719 14.11Z" fill="#00D3D0"></path><path d="M80.3125 17.5071V27.5476H75.2927V17.5183C75.2927 14.746 73.0456 12.498 70.273 12.498C67.5004 12.498 65.2538 14.746 65.2538 17.5183V27.5476H60.2341V0.672852H65.2538V8.81038C66.7304 7.95619 68.4448 7.46712 70.273 7.46712C72.1012 7.46712 73.8161 7.95619 75.2927 8.81038C78.2936 10.5462 80.3125 13.7908 80.3125 17.5071Z" fill="#1550E5"></path><path d="M55.2147 27.5475V27.548H30.1172V27.5475L42.6657 14.1104L55.2147 27.5475Z" fill="#1550E5"></path><path d="M55.2158 27.5479H55.2148" stroke="#179900" stroke-miterlimit="10"></path><path d="M55.2147 0.672852L48.8698 7.46712L42.6657 14.11L30.1172 27.5476V0.672852H55.2147Z" fill="#00D3D0"></path><path d="M42.6657 14.11L30.1172 27.5471V0.672852L36.4621 7.46712L42.6657 14.11Z" fill="#00D3D0"></path><path d="M30.1182 27.5479H30.1167" stroke="#179900" stroke-miterlimit="10"></path><path d="M43.4274 14.9253L30.1274 27.5362L42.6658 14.1104L43.4274 14.9253Z" fill="#0049B2"></path></svg>