<svg width="53" height="53" viewBox="0 0 54 53" fill="none" xmlns="http://www.w3.org/2000/svg"><rect x="1.39871" y="0.614224" width="51.5948" height="51.5948" rx="25.7974" stroke="#444444" stroke-width="1.22845"/><path d="M30.6611 16.7642L30.1809 15.9697H27.2749V23.1248L27.265 30.1137C27.27 30.1656 27.2749 30.2227 27.2749 30.2746C27.2749 32.0245 25.9185 33.4524 24.2452 33.4524C22.5719 33.4524 21.2154 32.0297 21.2154 30.2746C21.2154 28.5248 22.5719 27.0969 24.2452 27.0969C24.5917 27.0969 24.9284 27.1644 25.2403 27.2787V23.7894C24.9185 23.7323 24.5868 23.7011 24.2452 23.7011C20.7947 23.7063 17.9827 26.6556 17.9827 30.2798C17.9827 33.9041 20.7947 36.8533 24.2501 36.8533C27.7056 36.8533 30.5176 33.9041 30.5176 30.2798V21.9669C31.7701 23.2806 33.3889 24.5631 35.181 24.9733V21.4061C33.2354 20.5026 31.2998 17.8338 30.6611 16.7642Z" fill="#414141"/></svg>