<svg xmlns="http://www.w3.org/2000/svg" width="9.86667rem" height="8.8rem" viewBox="0 0 45 40" fill="none"><path fill-rule="evenodd" clip-rule="evenodd" d="M27.0764 0.661244C24.9828 4.6627 20.0135 14.7584 20.0286 14.9802C20.0636 15.4937 20.985 16.9386 21.1295 16.7062C21.253 16.5072 25.0672 8.87351 26.6001 5.75713C26.9507 5.04451 27.3099 4.48583 27.3983 4.51563C27.5626 4.57063 37.7735 24.9026 38.011 25.6475L38.1417 26.057H33.6195C30.128 26.057 29.0982 26.1114 29.1005 26.2958C29.1023 26.4272 29.2993 26.8783 29.5384 27.2985L29.973 28.0625L35.5189 28.1133C38.569 28.1412 41.1279 28.0982 41.205 28.0178C41.2822 27.9374 38.2127 21.6004 34.3839 13.9357L27.4225 0L27.0764 0.661244ZM8.61908 18.6924C6.06921 23.7704 4.03548 27.9773 4.09995 28.0415C4.25326 28.1941 13.6293 28.193 14.7492 28.0401C15.541 27.9321 15.645 27.853 15.9973 27.0911C16.2085 26.6338 16.3355 26.2142 16.2795 26.1585C16.2235 26.1026 14.1629 26.057 11.7003 26.057C9.2379 26.057 7.22316 26.0163 7.22316 25.9665C7.22316 25.6128 13.2295 13.8462 13.367 13.9308C13.4629 13.9898 15.568 18.1175 18.0448 23.1035C20.5216 28.0896 22.6186 32.1669 22.7048 32.1643C22.8866 32.1589 30.0589 17.755 30.0526 17.4077C30.0453 17.0047 29.3166 15.552 29.1216 15.552C29.0192 15.552 27.571 18.3032 25.9036 21.6657C24.2364 25.0283 22.7878 27.7515 22.6846 27.7174C22.5816 27.6832 20.4636 23.6043 17.9782 18.6535C15.4928 13.7025 13.4134 9.60862 13.3574 9.55592C13.3013 9.50321 11.1692 13.6147 8.61908 18.6924ZM3.65383 31.765C1.88278 32.221 0.28692 33.7494 0.0514832 35.2153C-0.146152 36.4459 0.219569 37.4399 1.2467 38.4621C1.98218 39.1942 2.39011 39.4266 3.43393 39.7078C4.973 40.1225 6.11526 40.017 7.5302 39.3294C8.06824 39.0679 8.56481 38.854 8.63348 38.854C8.70202 38.854 8.75824 39.1174 8.75824 39.4391C8.75824 39.9841 8.80082 40.0201 9.38179 39.9643L10.0054 39.9045L10.0597 37.7517C10.0897 36.5678 10.0261 35.2739 9.9185 34.8766C9.65182 33.8905 8.56767 32.6833 7.49966 32.1837C6.53356 31.7316 4.60076 31.5211 3.65383 31.765ZM15.2821 31.7238C13.9417 32.178 12.6073 33.315 12.2235 34.3302C12.1117 34.6258 12.0202 35.9739 12.0202 37.3257C12.0202 39.6347 12.0439 39.7908 12.4131 39.9074C13.2144 40.1607 13.3633 39.7388 13.3633 37.2153V34.859L14.0828 34.1083C15.5423 32.5852 17.8426 32.5718 19.3551 34.0775L20.0791 34.7981V37.0989C20.0791 39.4641 20.2399 40 20.9495 40C21.5009 40 21.6611 39.2226 21.5752 36.9623C21.5073 35.1738 21.4109 34.5933 21.0748 33.9468C20.6033 33.0405 19.6539 32.2456 18.5924 31.8686C17.8888 31.6186 15.8549 31.5296 15.2821 31.7238ZM26.7093 31.7349C26.1847 31.8678 25.0509 32.6114 24.5495 33.1515C23.7328 34.0312 23.533 34.8671 23.533 37.4024C23.533 39.634 23.5575 39.791 23.9259 39.9074C24.708 40.1545 24.8761 39.724 24.8761 37.4748C24.8761 35.0387 25.1294 34.2964 26.2012 33.5914C27.1128 32.9916 28.7649 32.8 29.6731 33.1888C31.3467 33.905 31.7838 34.8371 31.7838 37.6889C31.7838 39.632 31.8122 39.7922 32.1767 39.9074C32.9721 40.1587 33.1269 39.734 33.1269 37.3006C33.1269 35.3875 33.063 34.8946 32.7215 34.1713C31.9491 32.5358 30.326 31.5935 28.3299 31.6224C27.6439 31.6323 26.9146 31.6829 26.7093 31.7349ZM38.1795 31.9379C36.183 32.6482 35.0457 34.0601 35.0457 35.8282C35.0457 38.4585 38.0296 40.4437 41.0601 39.8296C41.7096 39.698 42.5267 39.4247 42.8758 39.2223C43.6734 38.7594 43.6433 38.7539 43.7156 39.3792C43.7666 39.8222 43.8666 39.9045 44.3518 39.9045H44.9275L44.9866 37.6125C45.0562 34.902 44.877 34.1633 43.9173 33.2052C42.4835 31.7738 40.1125 31.2501 38.1795 31.9379ZM7.35925 33.7539C8.99327 34.8812 9.00704 36.7052 7.39014 37.8207C5.72248 38.9711 3.46041 38.7574 2.16216 37.327C1.34149 36.4229 1.24344 35.5344 1.85515 34.5489C2.47204 33.5554 3.60049 33.0921 5.2282 33.1639C6.34609 33.2132 6.72908 33.3194 7.35925 33.7539ZM42.4836 33.8273C42.8778 34.1438 43.3042 34.7103 43.431 35.0865C44.3406 37.7873 40.1334 39.7126 37.572 37.7678C35.8802 36.4833 36.1696 34.5126 38.2117 33.4122C38.6454 33.1786 39.1548 33.1206 40.2769 33.1771C41.5873 33.243 41.8524 33.3213 42.4836 33.8273Z" fill="white"/></svg>