<svg width="53" height="53" viewBox="0 0 53 53" fill="none" xmlns="http://www.w3.org/2000/svg"><rect x="0.790982" y="0.614224" width="51.5948" height="51.5948" rx="25.7974" stroke="#444444" stroke-width="1.22845"/><g clip-path="url(#clip0_1_371)"><path d="M30.2769 17.186H22.897C21.7818 17.186 20.7454 17.4681 19.7876 18.0322C18.8561 18.5701 18.1214 19.3048 17.5835 20.2363C17.0193 21.181 16.7372 22.2109 16.7372 23.3261V30.706C16.7372 31.8211 17.0193 32.8576 17.5835 33.8154C18.1214 34.7469 18.8561 35.4816 19.7876 36.0195C20.7454 36.5836 21.7818 36.8657 22.897 36.8657H30.2769C31.3921 36.8657 32.422 36.5836 33.3666 36.0195C34.2981 35.4816 35.0328 34.7469 35.5708 33.8154C36.1349 32.8576 36.417 31.8211 36.417 30.706V23.3261C36.417 22.2109 36.1349 21.181 35.5708 20.2363C35.0328 19.3048 34.2981 18.5701 33.3666 18.0322C32.422 17.4681 31.3921 17.186 30.2769 17.186ZM34.5671 30.706C34.5671 31.48 34.3736 32.1983 33.9865 32.8609C33.5995 33.5234 33.078 34.0482 32.422 34.4353C31.766 34.8223 31.051 35.0158 30.2769 35.0158H22.897C22.1098 35.0158 21.3882 34.8223 20.7322 34.4353C20.0762 34.0482 19.5547 33.5267 19.1677 32.8707C18.7807 32.2147 18.5871 31.4932 18.5871 30.706V23.3261C18.5871 22.552 18.7807 21.837 19.1677 21.181C19.5547 20.525 20.0795 20.0035 20.7421 19.6164C21.4046 19.2294 22.1229 19.0359 22.897 19.0359H30.2769C31.051 19.0359 31.766 19.2294 32.422 19.6164C33.078 20.0035 33.5995 20.525 33.9865 21.181C34.3736 21.837 34.5671 22.552 34.5671 23.3261V30.706ZM26.5771 22.1059C25.685 22.1059 24.8617 22.3257 24.1073 22.7652C23.3529 23.2047 22.756 23.8017 22.3165 24.556C21.8769 25.3104 21.6572 26.1337 21.6572 27.0259C21.6572 27.918 21.8769 28.7413 22.3165 29.4957C22.756 30.25 23.3529 30.847 24.1073 31.2865C24.8617 31.726 25.685 31.9458 26.5771 31.9458C27.4693 31.9458 28.2925 31.726 29.0469 31.2865C29.8013 30.847 30.3983 30.25 30.8378 29.4957C31.2773 28.7413 31.4971 27.918 31.4971 27.0259C31.4971 26.1337 31.2773 25.3104 30.8378 24.556C30.3983 23.8017 29.8013 23.2047 29.0469 22.7652C28.2925 22.3257 27.4693 22.1059 26.5771 22.1059ZM26.5771 30.0959C26.0261 30.0959 25.5144 29.9581 25.0421 29.6826C24.5698 29.4071 24.1959 29.0332 23.9203 28.5609C23.6448 28.0886 23.5071 27.5769 23.5071 27.0259C23.5071 26.4748 23.6448 25.9631 23.9203 25.4908C24.1959 25.0185 24.5698 24.6446 25.0421 24.3691C25.5144 24.0936 26.0261 23.9558 26.5771 23.9558C27.1281 23.9558 27.6398 24.0936 28.1121 24.3691C28.5844 24.6446 28.9584 25.0185 29.2339 25.4908C29.5094 25.9631 29.6472 26.4748 29.6472 27.0259C29.6472 27.5769 29.5094 28.0886 29.2339 28.5609C28.9584 29.0332 28.5844 29.4071 28.1121 29.6826C27.6398 29.9581 27.1281 30.0959 26.5771 30.0959ZM31.871 21.0826C32.0546 21.0826 32.2088 21.1449 32.3334 21.2695C32.4581 21.3942 32.5204 21.5483 32.5204 21.732C32.5204 21.9157 32.4548 22.0731 32.3236 22.2043C32.1924 22.3355 32.0382 22.4011 31.8611 22.4011C31.684 22.4011 31.5299 22.3355 31.3987 22.2043C31.2675 22.0731 31.2019 21.9157 31.2019 21.732C31.2019 21.5483 31.2675 21.3942 31.3987 21.2695C31.5299 21.1449 31.6873 21.0826 31.871 21.0826Z" fill="#444444"/></g><defs><clipPath id="clip0_1_371"><rect width="19.6797" height="49.1379" fill="white" transform="matrix(1 0 0 -1 16.7363 50.3662)"/></clipPath></defs></svg>