<svg xmlns="http://www.w3.org/2000/svg" width="20" height="9" viewBox="0 0 20 9" fill="none"><path opacity="0.5" d="M18.2941 2.56656C18.0104 2.41939 17.6542 2.51727 17.4984 2.78512C17.3426 3.053 17.4462 3.38948 17.7298 3.53661C18.4278 3.89876 18.8281 4.30023 18.8281 4.63811C18.8281 5.05135 18.2082 5.69183 16.4682 6.25014C14.7493 6.80178 12.4521 7.10552 10 7.10552C7.54785 7.10552 5.2507 6.80178 3.53176 6.25014C1.7918 5.69186 1.17188 5.05135 1.17188 4.63811C1.17188 4.30023 1.57219 3.89876 2.27016 3.53657C2.55379 3.38944 2.65738 3.05297 2.50156 2.78508C2.34574 2.51723 1.98961 2.41935 1.7059 2.56652C0.927695 2.97033 0 3.65751 0 4.63811C0 5.38978 0.547344 6.46147 3.15477 7.29814C4.99195 7.88767 7.42297 8.21233 10 8.21233C12.577 8.21233 15.008 7.88767 16.8452 7.29814C19.4527 6.46147 20 5.38978 20 4.63811C20 3.65751 19.0723 2.97032 18.2941 2.56656Z" fill="white"/><path opacity="0.5" d="M5.22482 4.1235C6.50884 4.45858 8.2048 4.64314 10.0003 4.64314C11.7958 4.64314 13.4917 4.45861 14.7757 4.1235C16.3466 3.71359 17.1431 3.12018 17.1431 2.35989C17.1431 1.59956 16.3466 1.00623 14.7757 0.596322C14.427 0.505327 14.0477 0.425512 13.6445 0.357422C13.418 0.71876 13.1885 1.07854 12.9562 1.43674C13.4025 1.4986 13.8216 1.57444 14.2021 1.66399C15.3582 1.936 15.7805 2.24221 15.8673 2.35993C15.7805 2.47769 15.3582 2.7839 14.2021 3.05587C13.1079 3.31331 11.7001 3.46016 10.2173 3.47329C10.1451 3.47832 10.0727 3.48088 10.0003 3.48097C9.92737 3.48097 9.85505 3.4782 9.7832 3.47329C8.30044 3.46016 6.89261 3.31335 5.79839 3.05587C4.64231 2.7839 4.22 2.47765 4.13318 2.35993C4.22 2.24221 4.64236 1.936 5.79844 1.66399C6.17896 1.57448 6.59799 1.4986 7.04434 1.43674C6.80444 1.06668 6.575 0.706871 6.35603 0.357422C5.95281 0.425551 5.57351 0.505327 5.22482 0.596322C3.65394 1.00623 2.85742 1.5996 2.85742 2.35989C2.85742 3.12018 3.65394 3.71356 5.22482 4.1235Z" fill="white"/><mask id="mask0_3080_1308" maskUnits="userSpaceOnUse" x="2" y="0" width="16" height="5"><path opacity="0.5" d="M5.22482 4.1235C6.50884 4.45858 8.2048 4.64314 10.0003 4.64314C11.7958 4.64314 13.4917 4.45861 14.7757 4.1235C16.3466 3.71359 17.1431 3.12018 17.1431 2.35989C17.1431 1.59956 16.3466 1.00623 14.7757 0.596322C14.427 0.505327 14.0477 0.425512 13.6445 0.357422C13.418 0.71876 13.1885 1.07854 12.9562 1.43674C13.4025 1.4986 13.8216 1.57444 14.2021 1.66399C15.3582 1.936 15.7805 2.24221 15.8673 2.35993C15.7805 2.47769 15.3582 2.7839 14.2021 3.05587C13.1079 3.31331 11.7001 3.46016 10.2173 3.47329C10.1451 3.47832 10.0727 3.48088 10.0003 3.48097C9.92737 3.48097 9.85505 3.4782 9.7832 3.47329C8.30044 3.46016 6.89261 3.31335 5.79839 3.05587C4.64231 2.7839 4.22 2.47765 4.13318 2.35993C4.22 2.24221 4.64236 1.936 5.79844 1.66399C6.17896 1.57448 6.59799 1.4986 7.04434 1.43674C6.80444 1.06668 6.575 0.706871 6.35603 0.357422C5.95281 0.425551 5.57351 0.505327 5.22482 0.596322C3.65394 1.00623 2.85742 1.5996 2.85742 2.35989C2.85742 3.12018 3.65394 3.71356 5.22482 4.1235Z" fill="white"/></mask><g mask="url(#mask0_3080_1308)"><rect width="2.73552" height="22.1476" transform="matrix(0.853843 0.52053 -0.509809 0.860288 0.888672 -7.07422)" fill="white"/></g><mask id="mask1_3080_1308" maskUnits="userSpaceOnUse" x="0" y="2" width="20" height="7"><path opacity="0.5" d="M18.2941 2.56656C18.0104 2.41939 17.6542 2.51727 17.4984 2.78512C17.3426 3.053 17.4462 3.38948 17.7298 3.53661C18.4278 3.89876 18.8281 4.30023 18.8281 4.63811C18.8281 5.05135 18.2082 5.69183 16.4682 6.25014C14.7493 6.80178 12.4521 7.10552 10 7.10552C7.54785 7.10552 5.2507 6.80178 3.53176 6.25014C1.7918 5.69186 1.17188 5.05135 1.17188 4.63811C1.17188 4.30023 1.57219 3.89876 2.27016 3.53657C2.55379 3.38944 2.65738 3.05297 2.50156 2.78508C2.34574 2.51723 1.98961 2.41935 1.7059 2.56652C0.927695 2.97033 0 3.65751 0 4.63811C0 5.38978 0.547344 6.46147 3.15477 7.29814C4.99195 7.88767 7.42297 8.21233 10 8.21233C12.577 8.21233 15.008 7.88767 16.8452 7.29814C19.4527 6.46147 20 5.38978 20 4.63811C20 3.65751 19.0723 2.97032 18.2941 2.56656Z" fill="white"/></mask><g mask="url(#mask1_3080_1308)"><rect width="2.73552" height="22.1476" transform="matrix(0.853843 0.52053 -0.509809 0.860288 -0.783203 -7.65234)" fill="white"/></g></svg>