<svg xmlns="http://www.w3.org/2000/svg" width="14" height="14" viewBox="0 0 14 14" fill="none"><path d="M8.5604 4.32098L9.18481 3.69654L8.30174 3.69654L3.11043 3.69654L4.69162 2.1158L11.8842 2.1158L11.8842 9.30854L10.3034 10.8895L10.3034 5.69821L10.3034 4.81518L9.679 5.43954C8.7834 6.33502 5.24944 9.82296 3.74085 11.3113C3.50297 11.546 3.12045 11.5453 2.88324 11.3095L2.69749 11.1248C2.4595 10.8882 2.45746 10.504 2.6928 10.265C4.19445 8.74011 7.71954 5.1619 8.5604 4.32098ZM11.9336 9.25916L11.9334 9.25931C11.9335 9.25926 11.9335 9.2592 11.9336 9.25915L11.9336 9.25916Z" fill="white" stroke="white" stroke-width="0.731595"/></svg>